<svg viewBox="0 0 279 246" fill="none" xmlns="http://www.w3.org/2000/svg">
<g clip-path="url(#clip0_11878_1023)">
<path d="M102.476 34.95C102.874 32.4659 105.749 31.2386 107.717 32.7127L148.655 63.3801C151.171 65.2647 149.735 69.3648 146.559 69.3648H126.667L100.7 69.3651C98.7168 69.3651 97.2366 67.6016 97.5549 65.6177L102.476 34.95Z" fill="#8FD877"/>
<path d="M177.454 34.95C177.055 32.4659 174.181 31.2386 172.213 32.7127L131.275 63.3801C128.759 65.2647 130.194 69.3648 133.37 69.3648H153.262L179.229 69.3651C181.212 69.3651 182.693 67.6016 182.374 65.6177L177.454 34.95Z" fill="#8FD877"/>
<path d="M136.753 9.61571C137.742 6.58773 142.044 6.58774 143.033 9.61572L159.147 58.9633C159.84 61.0875 158.251 63.2672 156.007 63.2672H123.779C121.535 63.2672 119.945 61.0875 120.639 58.9633L136.753 9.61571Z" fill="#8FD877"/>
<path d="M47 150.792C47 110.243 80.0144 77.3719 120.74 77.3719H159.261C199.986 77.3719 233 110.243 233 150.792V181.905C233 197.036 220.681 209.301 205.485 209.301H74.5149C59.3188 209.301 47 197.036 47 181.905V150.792Z" fill="#FFB168"/>
<path d="M90 141.255C94.8243 148.491 108.469 158.622 124.452 141.255" stroke="#404040" stroke-width="4.66439" stroke-linecap="round"/>
<path d="M155.549 141.255C160.373 148.491 174.018 158.622 190.001 141.255" stroke="#404040" stroke-width="4.66439" stroke-linecap="round"/>
</g>
<path d="M241.5 170.5L278 141M42 170.5L1 141M119 213.5L103.5 245.5M185 213.5V245.5" stroke="black"/>
<defs>
<clipPath id="clip0_11878_1023">
<rect width="186" height="209.673" fill="white" transform="translate(47)"/>
</clipPath>
</defs>
</svg>
