<svg viewBox="0 0 550 620" fill="none" xmlns="http://www.w3.org/2000/svg">
<path d="M164.045 103.346C165.224 96.0007 173.724 92.3716 179.543 96.7305L300.597 187.414C308.036 192.986 303.791 205.11 294.401 205.11H235.58L158.796 205.111C152.931 205.111 148.554 199.897 149.495 194.03L164.045 103.346Z" fill="#8FD877"/>
<path d="M385.747 103.346C384.568 96.0007 376.069 92.3716 370.249 96.7305L249.197 187.414C241.757 192.986 246.002 205.11 255.393 205.11H314.213L390.998 205.111C396.861 205.111 401.239 199.897 400.297 194.03L385.747 103.346Z" fill="#8FD877"/>
<path d="M265.401 28.434C268.324 19.4803 281.046 19.4803 283.97 28.4341L331.619 174.354C333.67 180.635 328.97 187.081 322.335 187.081H227.036C220.402 187.081 215.7 180.635 217.751 174.354L265.401 28.434Z" fill="#8FD877"/>
<path d="M0 445.891C0 325.989 97.6231 228.789 218.047 228.789H331.953C452.378 228.789 550 325.989 550 445.891V537.893C550 582.634 513.574 618.903 468.638 618.903H81.3611C36.4264 618.903 0 582.634 0 537.893V445.891Z" fill="#FFB168"/>
<path d="M146 438.665C158.411 457.282 193.514 483.346 234.634 438.665" stroke="#404040" stroke-width="12" stroke-linecap="round"/>
<path d="M314.634 438.665C327.045 457.282 362.148 483.346 403.268 438.665" stroke="#404040" stroke-width="12" stroke-linecap="round"/>
</svg>
