<svg viewBox="0 0 55 62" fill="none" xmlns="http://www.w3.org/2000/svg">
<g clip-path="url(#clip0_10368_7739)">
<path d="M16.4046 10.3351C16.5225 9.60055 17.3725 9.23765 17.9544 9.67354L30.0598 18.7418C30.8037 19.2991 30.3792 20.5115 29.4402 20.5115H23.5581L15.8797 20.5116C15.2932 20.5116 14.8555 19.9901 14.9496 19.4035L16.4046 10.3351Z" fill="#8FD877"/>
<path d="M38.5753 10.3351C38.4574 9.60055 37.6075 9.23765 37.0255 9.67354L24.9203 18.7418C24.1763 19.2991 24.6008 20.5115 25.5399 20.5115H31.4219L39.1004 20.5116C39.6867 20.5116 40.1245 19.9901 40.0303 19.4035L38.5753 10.3351Z" fill="#8FD877"/>
<path d="M26.5405 2.8434C26.8329 1.94803 28.1051 1.94803 28.3975 2.84341L33.1623 17.4354C33.3675 18.0635 32.8974 18.7081 32.234 18.7081H22.7041C22.0407 18.7081 21.5705 18.0635 21.7756 17.4354L26.5405 2.8434Z" fill="#8FD877"/>
<path d="M6.86646e-05 44.5891C6.86646e-05 32.5989 9.76238 22.8789 21.8048 22.8789H33.1954C45.2379 22.8789 55.0001 32.5989 55.0001 44.5891V53.7893C55.0001 58.2634 51.3574 61.8903 46.8639 61.8903H8.13618C3.64271 61.8903 6.86646e-05 58.2634 6.86646e-05 53.7893V44.5891Z" fill="#FFB168"/>
<path d="M20.1333 48.2447C21.156 48.2447 21.985 46.3744 21.985 44.0672C21.985 41.76 21.156 39.8896 20.1333 39.8896C19.1106 39.8896 18.2815 41.76 18.2815 44.0672C18.2815 46.3744 19.1106 48.2447 20.1333 48.2447Z" fill="#404040"/>
<path d="M34.6106 48.2447C35.6332 48.2447 36.4623 46.3744 36.4623 44.0672C36.4623 41.76 35.6332 39.8896 34.6106 39.8896C33.5879 39.8896 32.7588 41.76 32.7588 44.0672C32.7588 46.3744 33.5879 48.2447 34.6106 48.2447Z" fill="#404040"/>
</g>
<defs>
<clipPath id="clip0_10368_7739">
<rect width="55" height="62" fill="white"/>
</clipPath>
</defs>
</svg>
